<svg width="82" height="80" viewBox="0 0 82 80" fill="none" xmlns="http://www.w3.org/2000/svg">
<path d="M33.1806 9.70497C37.0045 4.78662 44.4474 4.78662 48.2713 9.70497V9.70497C50.353 12.3825 53.703 13.7549 57.0645 13.3042L57.4928 13.2467C63.5342 12.4366 68.6791 17.6236 67.8282 23.6594V23.6594C67.3576 26.9973 68.7523 30.3277 71.4626 32.332V32.332C76.429 36.0047 76.429 43.4337 71.4626 47.1064V47.1064C68.7523 49.1107 67.3576 52.4411 67.8282 55.779V55.779C68.6791 61.8148 63.5342 67.0018 57.4928 66.1916L57.0645 66.1342C53.703 65.6835 50.353 67.0559 48.2713 69.7334V69.7334C44.4474 74.6518 37.0045 74.6518 33.1806 69.7334V69.7334C31.0989 67.0559 27.7489 65.6835 24.3874 66.1342L23.9591 66.1916C17.9177 67.0018 12.7728 61.8148 13.6238 55.779V55.779C14.0943 52.4411 12.6996 49.1107 9.98932 47.1064V47.1064C5.02292 43.4337 5.02292 36.0047 9.98932 32.332V32.332C12.6996 30.3277 14.0943 26.9973 13.6238 23.6594V23.6594C12.7728 17.6236 17.9177 12.4366 23.9591 13.2467L24.3874 13.3042C27.7489 13.7549 31.0989 12.3825 33.1806 9.70497V9.70497Z" fill="url(#paint0_radial_120_12)"/>
<rect x="39.0745" y="8.75732" width="3.70236" height="34.3029" fill="#1A1A1A"/>
<defs>
<radialGradient id="paint0_radial_120_12" cx="0" cy="0" r="1" gradientUnits="userSpaceOnUse" gradientTransform="translate(40.726 39.7192) rotate(90) scale(39.7192 40.726)">
<stop stop-color="white"/>
<stop offset="1" stop-color="#999999"/>
</radialGradient>
</defs>
</svg>
