<svg width="83" height="77" viewBox="0 0 83 77" fill="none" xmlns="http://www.w3.org/2000/svg">
<g opacity="0.88">
<mask id="path-1-inside-1_96_178" fill="white">
<path d="M57.0203 76.55C65.7792 73.069 73.0228 66.7232 77.5078 58.6017C81.9927 50.4802 83.4394 41.0895 81.5995 32.0412C79.7597 22.9929 74.748 14.8513 67.4246 9.01366C60.1012 3.17603 50.9228 0.00640202 41.4646 0.0487568C32.0063 0.0911116 22.8582 3.34281 15.59 9.24578C8.32191 15.1488 3.38709 23.3349 1.63249 32.3993C-0.122103 41.4637 1.41294 50.841 5.97419 58.922C10.5354 67.003 17.8384 73.2837 26.6298 76.6861L27.3163 74.999C18.9266 71.752 11.9574 65.7584 7.60457 58.0467C3.25177 50.335 1.78687 41.3862 3.46129 32.736C5.1357 24.0858 9.84502 16.2738 16.781 10.6406C23.717 5.00734 32.4471 1.90424 41.4731 1.86382C50.4991 1.8234 59.2581 4.84819 66.2468 10.4191C73.2355 15.9899 78.0182 23.7595 79.774 32.3943C81.5298 41.0291 80.1492 49.9906 75.8692 57.741C71.5892 65.4913 64.6767 71.5472 56.3179 74.8691L57.0203 76.55Z"/>
</mask>
<path d="M57.0203 76.55C65.7792 73.069 73.0228 66.7232 77.5078 58.6017C81.9927 50.4802 83.4394 41.0895 81.5995 32.0412C79.7597 22.9929 74.748 14.8513 67.4246 9.01366C60.1012 3.17603 50.9228 0.00640202 41.4646 0.0487568C32.0063 0.0911116 22.8582 3.34281 15.59 9.24578C8.32191 15.1488 3.38709 23.3349 1.63249 32.3993C-0.122103 41.4637 1.41294 50.841 5.97419 58.922C10.5354 67.003 17.8384 73.2837 26.6298 76.6861L27.3163 74.999C18.9266 71.752 11.9574 65.7584 7.60457 58.0467C3.25177 50.335 1.78687 41.3862 3.46129 32.736C5.1357 24.0858 9.84502 16.2738 16.781 10.6406C23.717 5.00734 32.4471 1.90424 41.4731 1.86382C50.4991 1.8234 59.2581 4.84819 66.2468 10.4191C73.2355 15.9899 78.0182 23.7595 79.774 32.3943C81.5298 41.0291 80.1492 49.9906 75.8692 57.741C71.5892 65.4913 64.6767 71.5472 56.3179 74.8691L57.0203 76.55Z" stroke="#989698" stroke-width="2" mask="url(#path-1-inside-1_96_178)"/>
</g>
</svg>
